<?xml version="1.0" encoding="UTF-8"?>
<svg id="Layer_2" data-name="Layer 2" xmlns="http://www.w3.org/2000/svg" xmlns:xlink="http://www.w3.org/1999/xlink" viewBox="0 0 200 69.78">
  <defs>
    <style>
      .cls-1 {
        fill: #105444;
      }
    </style>
    <symbol id="All_EN" data-name="All EN" viewBox="0 0 153.25 53.47">
      <use width="288.27" height="100.58" transform="scale(.53)" xlink:href="#EN_Text"/>
    </symbol>
    <symbol id="EN_Text" data-name="EN Text" viewBox="0 0 288.27 100.58">
      <g>
        <polygon class="cls-1" points="49.41 21.95 66.52 17.98 66.52 78.98 0 78.98 0 33.39 17.11 29.43 17.11 64.41 42.52 64.41 49.41 70.98 49.41 21.95"/>
        <path class="cls-1" d="M288.27,54.33v-20.94l-42.19-9.78v40.8h-7.27V21.94l-17.27-4v61.04h66.73v-17.72l-17.43-4.09v7.25h-7.26v-22.1l7.26,1.68v6.25l17.43,4.09Z"/>
        <g>
          <polygon class="cls-1" points="22.85 90.16 33.26 100.58 43.67 90.16 33.26 79.75 22.85 90.16"/>
          <polygon class="cls-1" points="96.81 17.98 107.22 28.4 117.63 17.98 107.22 7.57 96.81 17.98"/>
          <polygon class="cls-1" points="133.8 90.16 144.21 100.58 154.62 90.16 144.21 79.75 133.8 90.16"/>
          <polygon class="cls-1" points="194.06 90.16 183.64 79.75 176.29 87.11 168.93 79.75 158.52 90.16 168.93 100.58 176.29 93.22 183.64 100.58 194.06 90.16"/>
        </g>
        <g>
          <path class="cls-1" d="M197.15,12.28v52.13h-7.26v-31.25l-17.6-4.08v35.33h-7.27V4.84l-20.88-4.84-20.93,4.85v56.63l13.36-3.29s0-.04,0-.06v-4.95c-.33-.5-2.22-.52-2.25-1.08,0-.12.12-.86.17-1.04.47-2.08,1.19-4.05,1.55-6.16.05-.28,0-.58,0-.86-.23.04-.23.27-.3.43-.73,1.7-2.03,5.23-2.35,6.95-.09.53.28,1.4-.47,1.39-.35,0-.95-.08-.98-.5,0-.13.69-1.89.81-2.2,1.23-3.18,1.97-5.66,2.79-9.04.09-.38.59-.88.11-1.03-.22.63-1.24,1.16-1.86,1.06-.04-.44.16-.8.12-1.24-.04-.67-.62-3.13-.83-3.84-.31-1.07-1.01-2.12-1.35-3.16-1.28-3.87,1.96-10.1,2.5-14.11.09-.26.62-1.48.74-1.62.05-.05.77-.28.97-.37.66-.28,1.77-.52,2.45-.91.3-.17.58-.72.83-.94.31-.27.96-.46,1.06-.56.14-.13.15-.62.27-.86.33-.69.82-1.25,1.62-1.37.03-.26-.22-.35-.26-.6-.08-.44.14-1.28-.12-1.6-.79-.39-2.53-.68-2.41-1.78l2.67-.06c.04-.34.38-.77.45-1,.05-.18-.09-.37.02-.65.91-2.61,1.82-1.09,3.59-1.08.57,0,1.35-.31,1.97-.26,1.19,1.03.72,2.53,1.02,3.87,2.72,1.19,2.41,2.86-.65,2.78-.01.42-.44.82-.52,1.15-.09.39.13.81-.28,1.27.93.66,1.29,2.05,2.26,2.53,1.26.63,1.65.17,2.36,1.76.65,1.45.48,2.66.68,4.11.3,2.18.97,3.96,1.75,5.97.36.93-.13,1.06-.16,1.6-.01.39.34.78.28,1.19-.02.12-.23,1.15-.25,1.21-.09.23-.37.43-.39.55-.05.24.29.47.35.68.19.69-.48.96-.5,1.04-.07.53.06,1.35-.04,1.95-.02.16-.5,1.35-.56,1.43-.18.21-.5.12-.74.13l.78,16-.2.2c-.54.18-.64-.25-.94-.35-.7-.24-1.16-.28-1.87-.55-.19-.08-.59-.04-.83-.14.06.84-.33,1.68-.5,2.5-.42,1.95-.74,3.99-1.13,5.91-.19.97-.78,2.54-.75,3.5.01.38.48.73.39,1.17-.02.09-.27.09-.28.16-.08.52,1.58,1.85,2.1,2.02.23.07.49,0,.73.07.41.12,1.01.74.87,1.2-.12.4-1.36.36-1.77.37-.65.01-2.37.07-2.93-.03-.32-.05-.39-.31-.63-.4-.88-.35-2.68-.11-3.16-.43-.37-.26.08-.72.11-.96.06-.4-.01-.78.03-1.16.07-.55.45-.81-.07-1.54-.4.3-.03.66-.12,1.06-.13.57-.87,1.1-.99,1.57-.09.39.27,1.67-.05,2.13-.28.39-1.52.02-1.9.03-.23,0-.45.14-.67.14-.34,0-1.53.03-1.7-.03-.33-.12-.49-.85-.22-1.11.3-.29,2.52-.92,2.53-1.06-.17-.28-.19-.69-.59-.73-.79.03-.78.99-1.4.93-.04-.26.06-.6,0-.84-.04-.16-.38-.11-.41-.42,0-.08.07-1.45.08-1.55.08-.55.98-1,.26-1.45,0,0,0-.03-.02-.11h-21.47V29.1l-17.43,4.04v31.28h-7.27V12.26l-17.44,4.04v62.68h140.48V16.25l-17.11-3.96Z"/>
          <path class="cls-1" d="M139.72,66.58l.17-.13c-.78-.13-1.75.82-1.86.93.76-.53,1.69-.79,1.69-.79Z"/>
          <path class="cls-1" d="M137.77,52.5c-.4,2.5-.59,5.7-.01,8.11.68,2.83,1.48,3.68,2.5,4.91-.99-1.28-1.77-2.18-2.25-5.04-.44-2.62.06-7.3.08-9.19-.05.44-.27.84-.32,1.2Z"/>
          <path class="cls-1" d="M136.84,20.18c-.04-.74-.69-1.52-.53-2.32-.91,0-1.25.4-1.53,1.2-.88,2.52-1.29,6.23-1.83,8.94-.19.95-.64,1.92-.64,2.95.01,1.38.79,2.5.94,3.79.57-.03.59-.89,1.2-.93-.09-.38-.64.15-.84.12-.68-.13-.65-1.91-.13-2.09.19-.07.71.04.71-.09l-.97-.33-.09-.4h1.33c-.1-.33-.59-.24-.74-.53-.3-.6.23-.95.73-1.12.26-.08.63.27.54-.21l-1.73.26c-.35-.36,1.16-1.71,1.6-1.73-.16-.51-1.45.53-1.34-.07.18-.88,1.67-2.1,2.26-2.79-1.04-.77-.68-2-.65-3.05,0-.25-.33-1.87.38-1.4.13.09.38,1.49.8,1.59l-.39-1.6c.22-.08.95.21.93-.2Z"/>
          <path class="cls-1" d="M142.82,12.94l.67.27-.07-1.6c-.48.33-.42.84-.6,1.33Z"/>
          <path class="cls-1" d="M143.15,63.39c.02-.36-.09-.65-.18-.82-.07-.12-.08-.26-.03-.39.18-.48.62-1.65.68-2.28,0,0-.52,1.65-.8,2.06-.29.42,0,1.05,0,1.05,0,0,.22.91-.14,1.3,0,0,.43-.33.47-.93Z"/>
          <path class="cls-1" d="M144.82,17.99l.52-1.25c-.67-.76-1.73-1.23-2.12-2.21l-.27.07,1.86,3.39Z"/>
          <path class="cls-1" d="M142.82,58.27s.17-.07.2-.13c.14-.25.65-2.09.73-2.47.06-.29.25-1.26.27-1.46.1-.89-.08-1.95,0-2.86l-.69,2.3c-.06.26-.48.16-.52.31-.09.34.04,1.5.02,1.99-.03.77-.3,1.5,0,2.32Z"/>
        </g>
      </g>
    </symbol>
  </defs>
  <g id="Main_Logo" data-name="Main Logo">
    <use width="153.25" height="53.47" transform="scale(1.31)" xlink:href="#All_EN"/>
  </g>
</svg>